<?xml version="1.0" standalone="no"?> <!DOCTYPE svg PUBLIC "-//W3C//DTD SVG 1.0//EN" "http://www.w3.org/TR/2001/REC-SVG-20010904/DTD/svg10.dtd" > <svg xmlns="http://www.w3.org/2000/svg" width="100%" height="100%">
<defs >
<font horiz-adv-x="586" ><font-face
    font-family="Chub Gothic"
    units-per-em="1000"
    panose-1="0 0 0 0 0 0 0 0 0 0"
    ascent="750"
    descent="-250"
    alphabetic="0" />
<missing-glyph horiz-adv-x="500" />
<glyph unicode=" " glyph-name="space" horiz-adv-x="500" />
<glyph unicode="A" glyph-name="A" horiz-adv-x="713" d="M371 678L687 2H584L482 215H223L122 2H17L336 678H371ZM440 307L353 491L266 307H440Z" />
<glyph unicode="B" glyph-name="B" horiz-adv-x="477" d="M438 278Q455 241 455 200Q455 117 393 58Q332 0 230 0H37V676H180Q260 676 304 657Q349 638 376 595Q402 554 402 503Q402 457 379 417Q365 392 338 371Q369 357 392 339Q407 326 418 311T438 278ZM131
93H196Q265 93 294 106Q325 119 340 144Q358 169 358 199Q358 238 333 264Q310 291 264 304Q248 308 220 309T152 311H131V93ZM246 418Q274 428 290 452Q305 474 305 503Q305 540 280 561Q254 583 191 583H131V406H153Q217 406 246 418Z" />
<glyph unicode="C" glyph-name="C" horiz-adv-x="716" d="M691 137L682 125Q632 61 556 25Q480 -10 388 -10Q212 -10 109 108Q23 209 23 349Q23 497 127 598Q231 699 387 699Q434 699 476 690T557 662Q634 624 682 557L691 545L616 488L607 500Q568 551 511 579Q455
606 388 606Q315 606 252 570Q189 535 156 476Q121 417 121 343Q121 289 140 240Q160 193 198 156Q217 137 238 124T284 100Q336 81 392 81Q456 81 510 107Q563 131 608 183L617 193L691 137Z" />
<glyph unicode="D" glyph-name="D" horiz-adv-x="658" d="M570 532Q625 446 625 330Q625 229 581 152Q538 75 466 37Q396 0 271 0H51V676H200Q346 676 415 652Q515 617 570 532ZM143 91H202Q336 91 384 107Q454 130 490 187Q530 245 530 329Q530 417 487 480Q444
542 369 565Q310 583 173 583H143V91Z" />
<glyph unicode="E" glyph-name="E" horiz-adv-x="483" d="M451 582H145V410H448V316H145V92H448V-1H50V675H451V582Z" />
<glyph unicode="F" glyph-name="F" horiz-adv-x="485" d="M441 586H182V413H441V320H182V3H88V679H441V586Z" />
<glyph unicode="G" glyph-name="G" horiz-adv-x="749" d="M730 346L729 331Q729 175 636 82Q544 -10 390 -10Q295 -10 223 21Q149 54 94 117Q10 216 10 344Q10 439 59 523Q107 605 191 652Q274 699 380 699Q422 699 462 691T540 668Q614 637 687 570L698 559L626
490L616 501Q563 553 502 578Q443 604 382 604Q310 604 245 569Q178 533 144 473Q108 413 108 346Q108 276 145 215Q183 151 247 117Q313 81 391 81Q486 81 551 134Q567 147 579 162T602 194Q616 219 624 253H421V346H730Z" />
<glyph unicode="H" glyph-name="H" d="M442 676H537V0H442V312H143V0H49V676H143V405H442V676Z" />
<glyph unicode="I" glyph-name="I" horiz-adv-x="221" d="M66 676H161V0H66V676Z" />
<glyph unicode="J" glyph-name="J" horiz-adv-x="449" d="M371 682V230Q371 128 354 85Q337 41 296 15Q256 -11 200 -11Q156 -11 117 5Q77 22 29 61L19 70L69 145L81 136Q106 119 126 107T163 88Q182 79 200 79Q222 79 242 93Q261 107 268 130Q271 138 273 161T276
232V682H371Z" />
<glyph unicode="K" glyph-name="K" d="M197 371L545 0H418L156 278V0H60V676H156V453L394 676H524L197 371Z" />
<glyph unicode="L" glyph-name="L" horiz-adv-x="417" d="M152 92H401V0H58V676H152V92Z" />
<glyph unicode="M" glyph-name="M" horiz-adv-x="833" d="M702 677L799 1H705L646 428L435 1H400L186 431L128 1H35L132 677H165L418 166L669 677H702Z" />
<glyph unicode="N" glyph-name="N" horiz-adv-x="638" d="M489 676H583V0H547L142 464V0H45V676H81L489 206V676Z" />
<glyph unicode="O" glyph-name="O" horiz-adv-x="762" d="M631 595Q734 492 734 343Q734 194 631 91Q528 -12 380 -12Q231 -12 126 91Q23 194 23 340Q23 437 70 520Q117 603 199 650Q279 697 374 697Q527 697 631 595ZM637 343Q637 416 604 475Q570 533 508 569Q446
604 377 604Q310 604 249 569Q189 533 154 474Q120 415 120 340Q120 284 139 239Q157 194 195 156Q233 118 279 100Q323 81 377 81Q447 81 509 115Q570 150 603 210Q637 268 637 343Z" />
<glyph unicode="P" glyph-name="P" horiz-adv-x="503" d="M432 605Q471 558 471 489Q471 420 433 373Q397 328 331 311Q287 301 163 301H132V0H37V676H181Q295 676 334 666Q395 651 432 605ZM374 489Q374 516 359 540Q345 562 320 573Q294 583 231 583H132V394L226
392Q258 393 281 395T318 404Q344 413 359 437Q374 459 374 489Z" />
<glyph unicode="Q" glyph-name="Q" horiz-adv-x="806" d="M720 1H602L571 35Q492 -9 396 -9Q247 -9 144 94Q40 196 40 343Q40 440 88 523Q135 607 216 653Q298 700 395 700Q545 700 648 597Q751 494 751 345Q751 269 722 203Q697 145 645 91L720 1ZM654 346Q654
418 620 478Q588 535 525 572Q463 607 395 607Q327 607 266 572Q206 537 171 477Q137 415 137 343Q137 287 156 242Q174 197 212 159Q250 121 295 103Q339 84 394 84Q458 84 512 111L415 226H532L586 166Q601 183 613 202T634 241Q654 290 654 346Z" />
<glyph unicode="R" glyph-name="R" horiz-adv-x="563" d="M506 0H388L156 300H142V0H47V676H191Q218 676 235 675T262 673T278 670T289 667Q352 652 390 606Q430 559 430 489Q430 432 403 389Q389 366 370 350T325 322Q308 314 298 310T273 301L506 0ZM238 392Q258
392 266 395T288 405Q301 412 305 419T318 437Q333 461 333 490Q333 517 318 540Q310 552 301 560T284 574Q269 583 241 583H142V393L238 392Z" />
<glyph unicode="S" glyph-name="S" horiz-adv-x="463" d="M393 285Q426 234 426 180Q426 104 368 47Q310 -9 228 -9Q166 -9 113 25Q62 58 20 136L13 148L93 197L101 183Q127 134 160 107Q189 84 222 84Q251 84 276 97Q300 110 313 132Q326 154 326 179Q326 208
307 234Q278 276 200 334Q117 397 96 426Q59 475 59 533Q59 581 81 618Q92 637 108 652T144 678Q182 700 231 700Q282 700 323 675Q367 651 412 588L421 576L345 518L335 530Q300 576 278 590Q256 603 229 603Q195 603 176 584Q155 564 155 536Q155 520 163 501Q170
484 192 463Q196 458 213 445T274 400Q360 336 393 285Z" />
<glyph unicode="T" glyph-name="T" horiz-adv-x="527" d="M23 680H508V587H314V3H218V587H23V680Z" />
<glyph unicode="U" glyph-name="U" horiz-adv-x="520" d="M491 680V275Q491 230 487 194T474 130Q456 73 401 30Q346 -13 269 -13Q187 -13 127 27Q67 67 46 134Q40 154 37 189T33 275V680H128V275Q128 232 128 214T130 191L131 190Q134 157 150 133Q167 109 199
95Q231 79 266 79Q294 79 321 91Q346 103 365 125Q382 147 391 178Q393 186 395 207T397 275V680H491Z" />
<glyph unicode="V" glyph-name="V" horiz-adv-x="670" d="M536 676H639L344 0H311L20 676H123L328 200L536 676Z" />
<glyph unicode="W" glyph-name="W" horiz-adv-x="866" d="M744 676H841L647 0H613L432 463L246 0H213L21 676H119L242 242L414 676H448L619 242L744 676Z" />
<glyph unicode="X" glyph-name="X" horiz-adv-x="613" d="M362 349L576 0H466L306 259L146 0H35L251 349L49 676H160L307 438L454 676H564L362 349Z" />
<glyph unicode="Y" glyph-name="Y" horiz-adv-x="568" d="M436 676H545L329 320V0H235V320L14 676H124L281 423L436 676Z" />
<glyph unicode="Z" glyph-name="Z" horiz-adv-x="515" d="M459 676L189 93H437V0H42L314 584H80V676H459Z" />
<glyph unicode="a" glyph-name="a" horiz-adv-x="713" d="M371 678L687 2H584L482 215H223L122 2H17L336 678H371ZM440 307L353 491L266 307H440Z" />
<glyph unicode="b" glyph-name="b" horiz-adv-x="477" d="M438 278Q455 241 455 200Q455 117 393 58Q332 0 230 0H37V676H180Q260 676 304 657Q349 638 376 595Q402 554 402 503Q402 457 379 417Q365 392 338 371Q369 357 392 339Q407 326 418 311T438 278ZM131
93H196Q265 93 294 106Q325 119 340 144Q358 169 358 199Q358 238 333 264Q310 291 264 304Q248 308 220 309T152 311H131V93ZM246 418Q274 428 290 452Q305 474 305 503Q305 540 280 561Q254 583 191 583H131V406H153Q217 406 246 418Z" />
<glyph unicode="c" glyph-name="c" horiz-adv-x="716" d="M691 137L682 125Q632 61 556 25Q480 -10 388 -10Q212 -10 109 108Q23 209 23 349Q23 497 127 598Q231 699 387 699Q434 699 476 690T557 662Q634 624 682 557L691 545L616 488L607 500Q568 551 511 579Q455
606 388 606Q315 606 252 570Q189 535 156 476Q121 417 121 343Q121 289 140 240Q160 193 198 156Q217 137 238 124T284 100Q336 81 392 81Q456 81 510 107Q563 131 608 183L617 193L691 137Z" />
<glyph unicode="d" glyph-name="d" horiz-adv-x="658" d="M570 532Q625 446 625 330Q625 229 581 152Q538 75 466 37Q396 0 271 0H51V676H200Q346 676 415 652Q515 617 570 532ZM143 91H202Q336 91 384 107Q454 130 490 187Q530 245 530 329Q530 417 487 480Q444
542 369 565Q310 583 173 583H143V91Z" />
<glyph unicode="e" glyph-name="e" horiz-adv-x="483" d="M451 582H145V410H448V316H145V92H448V-1H50V675H451V582Z" />
<glyph unicode="f" glyph-name="f" horiz-adv-x="485" d="M441 586H182V413H441V320H182V3H88V679H441V586Z" />
<glyph unicode="g" glyph-name="g" horiz-adv-x="749" d="M730 346L729 331Q729 175 636 82Q544 -10 390 -10Q295 -10 223 21Q149 54 94 117Q10 216 10 344Q10 439 59 523Q107 605 191 652Q274 699 380 699Q422 699 462 691T540 668Q614 637 687 570L698 559L626
490L616 501Q563 553 502 578Q443 604 382 604Q310 604 245 569Q178 533 144 473Q108 413 108 346Q108 276 145 215Q183 151 247 117Q313 81 391 81Q486 81 551 134Q567 147 579 162T602 194Q616 219 624 253H421V346H730Z" />
<glyph unicode="h" glyph-name="h" d="M442 676H537V0H442V312H143V0H49V676H143V405H442V676Z" />
<glyph unicode="i" glyph-name="i" horiz-adv-x="221" d="M66 676H161V0H66V676Z" />
<glyph unicode="j" glyph-name="j" horiz-adv-x="449" d="M371 682V230Q371 128 354 85Q337 41 296 15Q256 -11 200 -11Q156 -11 117 5Q77 22 29 61L19 70L69 145L81 136Q106 119 126 107T163 88Q182 79 200 79Q222 79 242 93Q261 107 268 130Q271 138 273 161T276
232V682H371Z" />
<glyph unicode="k" glyph-name="k" d="M197 371L545 0H418L156 278V0H60V676H156V453L394 676H524L197 371Z" />
<glyph unicode="l" glyph-name="l" horiz-adv-x="417" d="M152 92H401V0H58V676H152V92Z" />
<glyph unicode="m" glyph-name="m" horiz-adv-x="833" d="M702 677L799 1H705L646 428L435 1H400L186 431L128 1H35L132 677H165L418 166L669 677H702Z" />
<glyph unicode="n" glyph-name="n" horiz-adv-x="638" d="M489 676H583V0H547L142 464V0H45V676H81L489 206V676Z" />
<glyph unicode="o" glyph-name="o" horiz-adv-x="762" d="M631 595Q734 492 734 343Q734 194 631 91Q528 -12 380 -12Q231 -12 126 91Q23 194 23 340Q23 437 70 520Q117 603 199 650Q279 697 374 697Q527 697 631 595ZM637 343Q637 416 604 475Q570 533 508 569Q446
604 377 604Q310 604 249 569Q189 533 154 474Q120 415 120 340Q120 284 139 239Q157 194 195 156Q233 118 279 100Q323 81 377 81Q447 81 509 115Q570 150 603 210Q637 268 637 343Z" />
<glyph unicode="p" glyph-name="p" horiz-adv-x="503" d="M432 605Q471 558 471 489Q471 420 433 373Q397 328 331 311Q287 301 163 301H132V0H37V676H181Q295 676 334 666Q395 651 432 605ZM374 489Q374 516 359 540Q345 562 320 573Q294 583 231 583H132V394L226
392Q258 393 281 395T318 404Q344 413 359 437Q374 459 374 489Z" />
<glyph unicode="q" glyph-name="q" horiz-adv-x="806" d="M720 1H602L571 35Q492 -9 396 -9Q247 -9 144 94Q40 196 40 343Q40 440 88 523Q135 607 216 653Q298 700 395 700Q545 700 648 597Q751 494 751 345Q751 269 722 203Q697 145 645 91L720 1ZM654 346Q654
418 620 478Q588 535 525 572Q463 607 395 607Q327 607 266 572Q206 537 171 477Q137 415 137 343Q137 287 156 242Q174 197 212 159Q250 121 295 103Q339 84 394 84Q458 84 512 111L415 226H532L586 166Q601 183 613 202T634 241Q654 290 654 346Z" />
<glyph unicode="r" glyph-name="r" horiz-adv-x="563" d="M506 0H388L156 300H142V0H47V676H191Q218 676 235 675T262 673T278 670T289 667Q352 652 390 606Q430 559 430 489Q430 432 403 389Q389 366 370 350T325 322Q308 314 298 310T273 301L506 0ZM238 392Q258
392 266 395T288 405Q301 412 305 419T318 437Q333 461 333 490Q333 517 318 540Q310 552 301 560T284 574Q269 583 241 583H142V393L238 392Z" />
<glyph unicode="s" glyph-name="s" horiz-adv-x="463" d="M393 285Q426 234 426 180Q426 104 368 47Q310 -9 228 -9Q166 -9 113 25Q62 58 20 136L13 148L93 197L101 183Q127 134 160 107Q189 84 222 84Q251 84 276 97Q300 110 313 132Q326 154 326 179Q326 208
307 234Q278 276 200 334Q117 397 96 426Q59 475 59 533Q59 581 81 618Q92 637 108 652T144 678Q182 700 231 700Q282 700 323 675Q367 651 412 588L421 576L345 518L335 530Q300 576 278 590Q256 603 229 603Q195 603 176 584Q155 564 155 536Q155 520 163 501Q170
484 192 463Q196 458 213 445T274 400Q360 336 393 285Z" />
<glyph unicode="t" glyph-name="t" horiz-adv-x="527" d="M23 680H508V587H314V3H218V587H23V680Z" />
<glyph unicode="u" glyph-name="u" horiz-adv-x="520" d="M491 680V275Q491 230 487 194T474 130Q456 73 401 30Q346 -13 269 -13Q187 -13 127 27Q67 67 46 134Q40 154 37 189T33 275V680H128V275Q128 232 128 214T130 191L131 190Q134 157 150 133Q167 109 199
95Q231 79 266 79Q294 79 321 91Q346 103 365 125Q382 147 391 178Q393 186 395 207T397 275V680H491Z" />
<glyph unicode="v" glyph-name="v" horiz-adv-x="670" d="M536 676H639L344 0H311L20 676H123L328 200L536 676Z" />
<glyph unicode="w" glyph-name="w" horiz-adv-x="866" d="M744 676H841L647 0H613L432 463L246 0H213L21 676H119L242 242L414 676H448L619 242L744 676Z" />
<glyph unicode="x" glyph-name="x" horiz-adv-x="613" d="M362 349L576 0H466L306 259L146 0H35L251 349L49 676H160L307 438L454 676H564L362 349Z" />
<glyph unicode="y" glyph-name="y" horiz-adv-x="568" d="M436 676H545L329 320V0H235V320L14 676H124L281 423L436 676Z" />
<glyph unicode="z" glyph-name="z" horiz-adv-x="515" d="M459 676L189 93H437V0H42L314 584H80V676H459Z" />
</font>
</defs>
</svg>
