<?xml version="1.0" standalone="no"?> <!DOCTYPE svg PUBLIC "-//W3C//DTD SVG 1.0//EN" "http://www.w3.org/TR/2001/REC-SVG-20010904/DTD/svg10.dtd" > <svg xmlns="http://www.w3.org/2000/svg" width="100%" height="100%">
<defs >
<font horiz-adv-x="786" ><font-face
    font-family="MightyDiteyNFW01-Regular"
    units-per-em="2048"
    panose-1="1 0 0 0 0 0 0 0 0 0"
    ascent="1742"
    descent="-530"
    alphabetic="0" />
<missing-glyph horiz-adv-x="307" />
<glyph unicode=" " glyph-name="space" horiz-adv-x="390" />
<glyph unicode="!" glyph-name="exclam" horiz-adv-x="283" d="M141 -41Q122 -41 105 -34Q88 -27 76 -15Q63 -2 56 15Q49 32 49 51Q49 70 56 87Q63 104 76 117Q88 129 105 136Q122 143 141 143Q160 143 177 136Q194 129 207 117Q219 104 226 87Q233 70 233 51Q233
32 226 15Q219 -2 207 -15Q194 -27 177 -34L141 -41ZM131 209L82 1507H199L152 209H131Z" />
<glyph unicode="&quot;" glyph-name="quotedbl" horiz-adv-x="430" d="M258 1374Q260 1389 265 1405Q269 1420 278 1433Q286 1445 298 1454Q310 1462 328 1462Q351 1462 366 1445Q381 1428 381 1405Q381 1397 380 1388Q378 1379 373 1368L233 1051H213L258 1374ZM94
1374Q96 1389 101 1405Q105 1420 114 1433Q122 1445 134 1454Q146 1462 164 1462Q187 1462 202 1445Q217 1428 217 1405Q217 1397 216 1388Q214 1379 209 1368L70 1051H49L94 1374Z" />
<glyph unicode="#" glyph-name="numbersign" horiz-adv-x="575" d="M240 1092L207 952L348 920L381 1059L240 1092ZM362 895L238 354H217L344 899L203 932L70 354H49L184 938L55 967V987L188 956L221 1098L55 1137V1155L225 1116L303 1450H324L246 1112L385 1079L471
1450H492L406 1075L526 1047V1026L399 1055L369 915L526 879V858L362 895Z" />
<glyph unicode="$" glyph-name="dollar" horiz-adv-x="819" d="M528 874Q580 852 625 822Q669 791 702 750Q734 709 752 657Q770 605 770 541Q770 464 743 398Q715 332 667 284Q618 235 552 208Q485 180 408 180H388Q378 180 369 182L266 -258L248 -254L348 184Q320
189 294 198Q268 207 244 219L133 -258L115 -254L227 229Q187 253 155 287Q122 320 99 361Q75 401 62 447Q49 493 49 543Q49 617 77 684Q105 750 158 801L170 786Q122 738 96 675Q70 612 70 543Q70 500 82 459Q94 417 116 381Q138 345 169 315Q199 285 236 264L362
817Q332 826 304 843Q275 860 253 884Q231 907 218 936Q205 965 205 999Q205 1035 219 1066Q233 1097 257 1120Q281 1143 313 1156Q344 1169 379 1169Q412 1169 442 1157L510 1450H530L461 1149Q493 1132 516 1103Q538 1073 547 1038L643 1450H664L528 874ZM379
225Q440 226 493 250Q546 274 585 315Q624 355 646 409Q668 463 668 524Q668 570 656 608Q643 645 621 675Q599 704 569 727Q539 750 504 768L379 225ZM485 776Q461 787 435 796Q409 805 383 813L252 254Q277 242 304 235Q331 227 358 225L485 776ZM528 961Q531
970 532 978Q532 986 532 995Q532 1036 512 1071Q492 1106 455 1120L406 915Q433 907 459 900Q484 892 510 883L528 961ZM414 1126Q391 1126 371 1120Q350 1113 334 1100Q318 1087 309 1069Q299 1050 299 1026Q299 984 326 959Q352 934 387 922L434 1126H414Z"
/>
<glyph unicode="%" glyph-name="percent" horiz-adv-x="1137" d="M811 690Q771 690 736 665Q700 639 672 594Q644 547 628 487Q612 426 612 356Q612 285 628 224Q644 163 672 117Q700 72 736 46Q771 20 811 20Q853 20 889 46Q924 72 950 117Q979 163 996 224Q1012
285 1012 356Q1012 426 996 487Q979 547 950 594Q924 639 889 665L811 690ZM811 711Q878 711 930 678Q982 644 1017 592Q1051 540 1069 477Q1087 414 1087 356Q1087 297 1069 234Q1051 171 1017 119Q982 67 930 34Q878 0 811 0Q744 0 693 34Q642 67 608 119Q573
171 555 234Q537 297 537 356Q537 414 555 477Q573 540 608 592Q642 644 693 678L811 711ZM324 1430Q283 1430 248 1404Q212 1378 184 1333Q156 1287 141 1226Q125 1165 125 1094Q125 1024 141 964Q156 903 184 856Q212 811 248 785Q283 758 324 758Q366 758 402
785Q437 811 463 856Q491 903 508 964Q524 1024 524 1094Q524 1165 508 1226Q491 1287 463 1333Q437 1378 402 1404L324 1430ZM324 1450Q391 1450 443 1416Q494 1382 529 1330Q563 1278 581 1215Q598 1152 598 1094Q598 1035 581 973Q563 910 529 858Q494 806 443
773Q391 739 324 739Q256 739 205 773Q153 806 119 858Q84 910 67 973Q49 1035 49 1094Q49 1152 67 1215Q84 1278 119 1330Q153 1382 205 1416L324 1450ZM317 0H295L813 1450H834L317 0Z" />
<glyph unicode="&amp;" glyph-name="ampersand" horiz-adv-x="1511" d="M1006 1061Q962 1042 919 1024Q876 1005 835 983Q851 988 868 990Q884 991 901 991Q994 991 1076 958Q1158 924 1220 866Q1281 807 1317 726Q1352 645 1352 551Q1352 466 1327 389Q1302 311
1258 246Q1214 180 1154 127Q1093 74 1022 37Q950 -1 871 -21Q792 -41 711 -41Q573 -41 453 10Q332 61 243 150Q153 238 101 357Q49 475 49 610Q49 723 86 825Q122 926 186 1009Q250 1091 338 1151Q426 1210 530 1239Q519 1256 513 1276Q506 1295 506 1317Q506
1365 528 1401Q549 1437 584 1461Q619 1485 664 1497Q708 1509 754 1509Q800 1509 845 1497Q889 1485 924 1461Q958 1437 980 1401Q1001 1365 1001 1317Q1001 1293 994 1271Q986 1248 973 1231Q959 1213 939 1203Q918 1192 893 1192Q858 1192 833 1216Q807 1239
807 1274Q807 1308 832 1331Q857 1354 891 1354Q923 1354 948 1332Q972 1310 975 1278Q981 1296 981 1317Q981 1358 963 1390Q945 1422 917 1444Q888 1466 852 1478Q815 1489 778 1489Q744 1489 714 1481Q683 1472 660 1455Q637 1437 624 1411Q610 1384 610 1348Q610
1316 622 1288Q633 1260 659 1241Q558 1229 470 1178Q381 1127 316 1049Q251 970 214 870Q176 769 176 657Q176 583 193 505Q209 426 241 351Q272 275 319 208Q366 141 426 90Q486 39 559 10Q632 -20 717 -20Q793 -20 861 3Q929 25 987 66Q1044 106 1091 161Q1137
215 1170 280Q1202 344 1220 415Q1237 486 1237 559Q1237 631 1215 704Q1192 777 1149 837Q1106 896 1044 934Q981 971 901 971Q830 971 769 943Q708 915 663 867Q618 819 593 757Q567 694 567 625Q567 557 600 503Q633 449 692 418L651 365Q622 382 599 406Q575
430 558 460Q541 489 532 522Q522 554 522 588Q522 662 540 720Q558 777 590 823Q622 869 667 905Q711 940 764 970Q817 1000 877 1026Q936 1052 999 1079L1454 1272L1462 1253L1006 1061Z" />
<glyph unicode="&apos;" glyph-name="quotesingle" horiz-adv-x="266" d="M94 1374Q96 1389 101 1405Q105 1420 114 1433Q122 1445 134 1454Q146 1462 164 1462Q187 1462 202 1445Q217 1428 217 1405Q217 1397 216 1388Q214 1379 209 1368L70 1051H49L94 1374Z" />
<glyph unicode="(" glyph-name="parenleft" horiz-adv-x="616" d="M567 1405Q460 1344 384 1259Q307 1173 258 1071Q209 968 187 854Q164 739 164 621Q164 504 190 391Q216 277 267 174Q317 71 393 -17Q468 -104 567 -168L559 -184Q442 -125 348 -38Q254 50 188
157Q121 264 85 387Q49 510 49 641Q49 769 85 887Q121 1005 188 1107Q254 1208 348 1289Q442 1369 559 1423L567 1405Z" />
<glyph unicode=")" glyph-name="parenright" horiz-adv-x="616" d="M59 1423Q175 1369 269 1289Q363 1208 429 1107Q495 1005 531 887Q567 769 567 641Q567 510 531 387Q495 264 429 157Q363 50 269 -38Q175 -125 59 -184L49 -168Q148 -104 224 -17Q299 71 350
174Q401 277 427 391Q453 504 453 621Q453 739 430 854Q407 968 359 1071Q310 1173 234 1259Q157 1344 49 1405L59 1423Z" />
<glyph unicode="*" glyph-name="asterisk" horiz-adv-x="737" d="M358 1169V1516H379V1169L678 1341L688 1325L389 1153L688 979L678 963L379 1135V788H358V1135L59 963L49 979L350 1153L49 1325L59 1341L358 1169Z" />
<glyph unicode="+" glyph-name="plus" horiz-adv-x="1108" d="M545 698V1194H563V698H1059V678H563V184H545V678H49V698H545Z" />
<glyph unicode="," glyph-name="comma" horiz-adv-x="285" d="M80 -209Q112 -205 137 -183Q161 -161 178 -131Q194 -101 204 -68Q213 -34 215 -6Q203 -23 182 -33Q160 -43 137 -43Q99 -43 74 -16Q49 11 49 49Q49 67 56 84Q63 100 75 113Q87 125 104 132Q120 139
139 139Q165 139 184 128Q202 117 214 99Q225 81 231 58Q236 35 236 12Q236 -22 227 -62Q217 -101 198 -137Q178 -172 149 -198Q120 -223 82 -229L80 -209Z" />
<glyph unicode="-" glyph-name="hyphen" horiz-adv-x="455" d="M406 594V537H49V594H406Z" />
<glyph unicode="." glyph-name="period" horiz-adv-x="281" d="M141 -43Q122 -43 105 -36Q88 -29 76 -17Q63 -4 56 13Q49 30 49 49Q49 67 56 84Q63 100 76 113Q88 125 105 132Q122 139 141 139Q178 139 205 113Q231 86 231 49Q231 30 224 13Q217 -4 205 -17Q192
-29 176 -36L141 -43Z" />
<glyph unicode="/" glyph-name="slash" horiz-adv-x="707" d="M178 -215H49L637 1442H657L178 -215Z" />
<glyph unicode="0" glyph-name="zero" horiz-adv-x="1241" d="M621 1421Q531 1421 453 1364Q375 1307 315 1210Q255 1111 221 980Q186 848 186 698Q186 547 221 416Q255 285 315 186Q375 89 453 32Q531 -25 621 -25Q710 -25 789 32Q867 89 926 186Q986 285 1021
416Q1055 547 1055 698Q1055 848 1021 980Q986 1111 926 1210Q867 1307 789 1364L621 1421ZM621 1440Q739 1440 844 1382Q948 1323 1026 1221Q1103 1120 1148 986Q1192 851 1192 698Q1192 544 1148 410Q1103 276 1026 176Q948 74 844 16Q739 -43 621 -43Q502 -43
398 16Q293 74 215 176Q138 276 94 410Q49 544 49 698Q49 851 94 986Q138 1120 215 1221Q293 1323 398 1382L621 1440Z" />
<glyph unicode="1" glyph-name="one" horiz-adv-x="383" d="M334 1516V0H225V1370L63 1196L49 1208L334 1516Z" />
<glyph unicode="2" glyph-name="two" horiz-adv-x="1196" d="M594 1481Q486 1481 391 1444Q296 1407 225 1341Q153 1274 112 1182Q70 1090 70 979Q70 922 83 868Q95 813 120 765Q145 716 183 676Q220 635 270 606L260 590Q208 620 169 663Q129 705 103 756Q76
806 63 863Q49 920 49 979Q49 1094 93 1190Q136 1285 210 1354Q284 1423 384 1462Q483 1500 594 1501Q696 1501 795 1467Q894 1433 973 1371Q1051 1308 1099 1219Q1147 1130 1147 1020Q1147 938 1125 870Q1102 802 1063 745Q1024 688 971 641Q918 593 858 552Q797
510 731 474Q665 437 600 403Q537 370 478 338Q418 305 368 270Q317 235 279 196Q240 157 219 111H1057V0H172V35Q172 102 204 160Q236 217 289 268Q342 319 411 367Q479 415 553 463Q637 518 721 577Q805 636 872 704Q939 772 981 853Q1022 934 1022 1034Q1022
1129 992 1211Q961 1293 906 1353Q850 1413 771 1447L594 1481Z" />
<glyph unicode="3" glyph-name="three" horiz-adv-x="1223" d="M604 1479Q556 1479 502 1465Q448 1450 403 1422Q358 1393 329 1350Q299 1307 299 1249H279Q279 1310 310 1357Q341 1404 389 1436Q436 1467 494 1483Q551 1499 604 1499Q657 1499 715 1483Q772 1467
820 1436Q868 1404 899 1357Q930 1310 930 1249Q930 1204 911 1166Q892 1127 861 1098Q830 1068 792 1048Q753 1028 713 1018Q809 1006 893 962Q977 918 1040 851Q1102 783 1138 696Q1174 608 1174 510Q1174 393 1128 292Q1082 191 1004 117Q925 42 822 -1Q718
-43 604 -43Q506 -43 416 -12Q326 19 253 76Q179 132 126 211Q73 290 49 385L94 420Q113 327 159 246Q204 165 270 105Q336 44 421 10Q506 -25 604 -25Q671 -25 731 -4Q790 17 839 53Q888 89 927 139Q965 188 992 245Q1019 302 1033 365Q1047 427 1047 489Q1047
582 1016 674Q984 765 927 838Q869 911 787 956Q705 1001 604 1001V1022Q650 1022 689 1041Q728 1060 756 1092Q784 1124 800 1165Q815 1205 815 1249Q815 1294 800 1336Q784 1377 756 1409Q728 1441 689 1460L604 1479Z" />
<glyph unicode="4" glyph-name="four" horiz-adv-x="629" d="M393 1190L78 401H393V1190ZM502 381V0H393V381H49L502 1518V401H580V381H502Z" />
<glyph unicode="5" glyph-name="five" horiz-adv-x="1233" d="M399 928Q458 959 521 974Q584 989 649 989Q753 989 850 952Q946 915 1021 849Q1095 783 1140 692Q1184 601 1184 494Q1184 378 1136 280Q1087 181 1007 110Q926 39 822 -1Q717 -41 606 -41Q507 -41
416 -10Q324 22 250 79Q175 136 123 217Q70 297 49 395L92 428Q109 332 154 250Q199 168 267 108Q334 48 421 14Q507 -20 606 -20Q705 -20 787 22Q869 64 929 134Q988 203 1021 292Q1053 380 1053 473Q1053 533 1042 593Q1031 653 1009 708Q986 763 953 811Q919
859 874 894Q829 929 773 949Q717 969 649 969Q546 969 452 930Q357 891 283 817L268 827L406 1450H934V1430H510L399 928Z" />
<glyph unicode="6" glyph-name="six" horiz-adv-x="1241" d="M635 1053Q536 1053 451 1017Q365 980 302 917Q238 853 202 767Q166 681 166 582Q166 512 179 441Q191 369 217 302Q242 235 281 177Q319 118 371 74Q423 30 489 5Q555 -20 635 -20Q706 -20 766 2Q826
24 875 63Q924 101 962 153Q1000 205 1026 265Q1051 324 1064 388Q1077 452 1077 516Q1077 611 1048 707Q1018 803 962 880Q906 957 824 1005L635 1053ZM872 1489Q774 1489 690 1460Q605 1431 534 1380Q462 1329 405 1261Q347 1192 303 1113Q258 1033 228 947Q198
860 182 774Q210 842 257 897Q303 952 363 991Q422 1029 491 1050Q560 1071 635 1071Q756 1071 858 1030Q960 989 1035 915Q1109 841 1151 739Q1192 637 1192 516Q1192 399 1149 298Q1105 196 1030 121Q954 46 853 3Q751 -41 635 -41Q500 -41 392 10Q283 61 207
149Q131 236 90 352Q49 468 49 598Q49 712 77 824Q104 935 156 1036Q207 1137 281 1223Q354 1309 446 1373Q537 1436 645 1472Q752 1507 872 1507V1489Z" />
<glyph unicode="7" glyph-name="seven" horiz-adv-x="565" d="M516 1450L164 0H49L397 1430H72V1450H516Z" />
<glyph unicode="8" glyph-name="eight" horiz-adv-x="1251" d="M623 -18Q718 -18 804 16Q889 49 953 109Q1017 169 1055 252Q1092 334 1092 432Q1092 521 1066 591Q1039 661 992 715Q944 769 879 810Q813 850 735 881L573 944Q489 906 415 861Q340 815 284 755Q228
695 195 618Q162 540 162 438Q162 337 196 253Q230 169 291 109Q352 49 437 16L623 -18ZM842 1257Q842 1307 826 1350Q810 1392 780 1423Q750 1454 708 1472Q666 1489 614 1489Q569 1489 529 1474Q489 1459 460 1432Q430 1405 413 1367Q395 1329 395 1282Q395 1224
423 1183Q451 1141 493 1110Q535 1079 585 1058Q635 1036 680 1018Q715 1037 745 1061Q775 1084 797 1113Q818 1142 830 1178L842 1257ZM952 1257Q952 1206 929 1167Q906 1128 871 1099Q836 1069 793 1047Q749 1024 709 1006L778 979Q867 944 945 895Q1022 845
1079 779Q1136 712 1169 629Q1202 546 1202 444Q1202 364 1179 297Q1156 230 1116 177Q1075 123 1020 82Q964 41 900 14Q835 -13 764 -27Q693 -41 621 -41Q510 -41 407 -11Q304 19 225 79Q145 138 97 226Q49 313 49 428Q49 500 70 560Q91 620 128 670Q164 719 213
760Q262 801 318 836Q373 870 432 899Q491 928 549 954Q507 971 463 998Q418 1024 382 1060Q345 1095 322 1139Q299 1182 299 1233Q299 1299 325 1350Q350 1401 394 1436Q437 1471 494 1489Q551 1507 614 1507Q669 1507 729 1492Q788 1477 838 1446Q887 1415 919
1368L952 1257Z" />
<glyph unicode="9" glyph-name="nine" horiz-adv-x="1241" d="M606 416Q705 416 791 452Q876 488 940 552Q1003 615 1039 701Q1075 786 1075 885Q1075 954 1063 1026Q1050 1098 1025 1165Q999 1232 961 1291Q922 1350 870 1394Q818 1438 752 1464Q686 1489 606
1489Q500 1489 418 1441Q336 1393 280 1316Q223 1239 194 1143Q164 1047 164 952Q164 888 177 824Q190 760 216 701Q242 641 280 589Q317 537 366 499Q415 460 475 438L606 416ZM369 -20Q467 -20 552 9Q636 38 708 89Q779 139 837 207Q894 275 938 355Q982 434
1012 520Q1041 606 1057 692Q1029 624 983 569Q937 514 878 476Q819 437 750 416Q681 395 606 395Q484 395 382 437Q280 478 206 553Q132 627 91 729Q49 831 49 952Q49 1068 93 1170Q136 1271 212 1346Q287 1421 389 1464Q490 1507 606 1507Q741 1507 850 1456Q958
1405 1034 1318Q1110 1230 1151 1115Q1192 999 1192 870Q1192 757 1165 645Q1137 533 1086 432Q1034 331 961 245Q887 158 796 95Q704 31 597 -5Q489 -41 369 -41V-20Z" />
<glyph unicode=":" glyph-name="colon" horiz-adv-x="281" d="M141 -43Q122 -43 105 -36Q88 -29 76 -17Q63 -4 56 13Q49 30 49 49Q49 67 56 84Q63 100 76 113Q88 125 105 132Q122 139 141 139Q178 139 205 113Q231 86 231 49Q231 30 224 13Q217 -4 205 -17Q192
-29 176 -36L141 -43ZM141 383Q122 383 105 390Q88 397 76 410Q63 422 56 439Q49 455 49 473Q49 492 56 509Q63 526 76 539Q88 551 105 558Q122 565 141 565Q159 565 176 558Q192 551 205 539Q217 526 224 509Q231 492 231 473Q231 436 205 410L141 383Z" />
<glyph unicode=";" glyph-name="semicolon" horiz-adv-x="285" d="M80 -209Q112 -205 137 -183Q161 -161 178 -131Q194 -101 204 -68Q213 -34 215 -6Q203 -23 182 -33Q160 -43 137 -43Q99 -43 74 -16Q49 11 49 49Q49 67 56 84Q63 100 75 113Q87 125 104 132Q120
139 139 139Q165 139 184 128Q202 117 214 99Q225 81 231 58Q236 35 236 12Q236 -22 227 -62Q217 -101 198 -137Q178 -172 149 -198Q120 -223 82 -229L80 -209ZM141 383Q122 383 105 390Q88 397 76 410Q63 422 56 439Q49 455 49 473Q49 492 56 509Q63 526 76 539Q88
551 105 558Q122 565 141 565Q159 565 176 558Q192 551 205 539Q217 526 224 509Q231 492 231 473Q231 436 205 410L141 383Z" />
<glyph unicode="&lt;" glyph-name="less" horiz-adv-x="1102" d="M78 692L1053 266V246L49 684V702L1053 1141V1120L78 692Z" />
<glyph unicode="=" glyph-name="equal" horiz-adv-x="1112" d="M1063 573V553H49V573H1063ZM1063 834V813H49V834H1063Z" />
<glyph unicode="&gt;" glyph-name="greater" horiz-adv-x="1102" d="M49 1141L1053 702V684L49 246V266L1024 692L49 1120V1141Z" />
<glyph unicode="?" glyph-name="question" horiz-adv-x="1094" d="M436 -41Q418 -41 401 -34Q384 -27 372 -15Q359 -2 352 15Q344 32 344 51Q344 70 352 87Q359 104 372 117Q384 129 401 136Q418 143 436 143Q455 143 472 136Q489 129 502 117Q514 104 521 87Q528
70 528 51Q528 32 521 15Q514 -2 502 -15Q489 -27 472 -34L436 -41ZM514 1489Q430 1489 351 1460Q271 1430 209 1377Q146 1324 108 1250Q70 1175 70 1085Q70 1037 82 991Q93 944 116 904Q138 863 173 831Q207 798 252 776L244 758Q196 780 160 815Q124 849 99 892Q74
935 62 985Q49 1034 49 1085Q49 1179 89 1257Q129 1335 195 1391Q261 1446 346 1477Q430 1507 520 1507Q622 1507 717 1477Q811 1446 884 1388Q956 1329 1000 1245Q1044 1160 1044 1051Q1044 959 1013 890Q982 820 933 765Q883 709 821 665Q759 620 698 580Q652
550 607 521Q562 491 526 459Q490 426 468 390Q446 354 446 311V188H426V338Q426 385 445 426Q464 466 495 504Q526 541 566 576Q606 611 649 647Q698 687 747 730Q795 773 834 822Q872 871 896 929Q920 986 920 1055Q920 1148 893 1228Q865 1307 813 1365Q761
1423 686 1456L514 1489Z" />
<glyph unicode="@" glyph-name="at" horiz-adv-x="1606" d="M659 299Q729 299 795 325Q861 351 919 396Q976 440 1024 499Q1072 558 1106 624Q1140 690 1159 760Q1178 829 1178 895Q1178 956 1161 1013Q1143 1069 1109 1112Q1075 1155 1025 1181Q974 1206 909
1206Q839 1206 774 1180Q708 1154 651 1110Q593 1065 546 1006Q499 947 465 881Q431 815 412 745Q393 675 393 610Q393 548 410 492Q427 436 461 393Q494 350 544 325L659 299ZM1079 459Q1038 420 990 387Q941 354 887 330Q833 306 776 293Q718 279 659 279Q582
279 516 305Q450 330 401 377Q351 423 323 488Q295 553 295 633Q295 710 320 784Q344 857 387 923Q430 989 489 1045Q547 1101 615 1142Q683 1182 758 1205Q833 1227 909 1227Q988 1227 1055 1201Q1122 1174 1171 1127Q1219 1079 1247 1013Q1274 946 1274 866Q1274
821 1269 783Q1263 744 1254 711Q1245 678 1234 649Q1223 620 1212 592Q1192 544 1177 497Q1161 450 1161 393Q1161 365 1180 342Q1198 319 1229 319Q1275 319 1311 340Q1346 361 1373 396Q1399 430 1417 475Q1434 519 1445 565Q1456 611 1461 655Q1466 699 1466
733Q1466 896 1412 1029Q1358 1161 1261 1255Q1164 1349 1028 1401Q892 1452 729 1452Q598 1452 490 1402Q381 1352 304 1267Q226 1181 184 1068Q141 955 141 829Q141 656 197 508Q253 359 355 249Q457 139 601 77Q745 14 922 14Q1045 14 1158 59Q1270 104 1358
190L1372 176Q1321 123 1256 83Q1191 42 1119 15Q1047 -13 972 -27Q896 -41 823 -41Q717 -41 618 -14Q519 14 433 65Q347 116 276 187Q205 257 155 343Q105 429 77 528Q49 626 49 733Q49 839 77 938Q105 1037 155 1123Q205 1209 276 1280Q347 1351 433 1401Q519
1451 618 1479Q716 1507 823 1507Q979 1507 1113 1454Q1247 1401 1346 1306Q1444 1210 1500 1078Q1556 945 1556 786Q1556 739 1548 684Q1540 629 1524 575Q1507 521 1481 471Q1455 421 1419 383Q1382 345 1335 322Q1288 299 1229 299Q1197 299 1171 314Q1144 328
1125 351Q1105 373 1094 402L1079 459Z" />
<glyph unicode="A" glyph-name="A" horiz-adv-x="598" d="M340 645L258 1176L172 645H340ZM549 0H440L344 625H170L70 0H49L293 1518H315L549 0Z" />
<glyph unicode="B" glyph-name="B" horiz-adv-x="1163" d="M158 18H582Q680 18 759 63Q838 107 894 179Q949 250 979 339Q1008 428 1008 518Q1008 608 979 697Q949 786 894 857Q838 928 759 972Q680 1016 582 1016Q492 1016 408 981L399 997Q461 1025 492 1082Q522
1139 522 1204Q522 1243 510 1283Q497 1322 473 1353Q449 1384 415 1404Q381 1423 338 1423H158V18ZM49 0V1442H338Q392 1442 444 1424Q496 1406 537 1373Q578 1339 604 1292Q629 1245 629 1188Q629 1146 613 1107Q597 1068 569 1036Q683 1036 782 997Q881 958
955 889Q1029 819 1072 724Q1114 629 1114 518Q1114 409 1071 315Q1028 220 955 150Q882 80 786 40Q689 0 582 0H49Z" />
<glyph unicode="C" glyph-name="C" horiz-adv-x="1585" d="M819 -41Q713 -41 615 -14Q516 14 431 65Q345 115 275 185Q205 255 155 341Q104 426 77 525Q49 623 49 729Q49 835 77 934Q104 1032 155 1118Q205 1203 276 1274Q346 1345 432 1396Q517 1446 615 1474Q713
1501 819 1501Q931 1501 1035 1470Q1139 1439 1229 1382Q1318 1325 1391 1245Q1463 1164 1513 1065L1411 1024Q1376 1118 1319 1201Q1262 1284 1186 1346Q1110 1408 1018 1445Q925 1481 819 1481Q721 1481 635 1451Q549 1420 478 1367Q407 1313 351 1241Q295 1169
257 1086Q218 1002 198 911Q178 820 178 729Q178 639 198 548Q218 457 257 374Q295 290 351 218Q407 145 478 92Q549 38 635 8Q721 -23 819 -23Q941 -23 1053 16Q1164 54 1256 124Q1347 193 1415 290Q1482 386 1518 502L1536 496Q1500 377 1431 278Q1361 179 1267
108Q1173 37 1059 -2L819 -41Z" />
<glyph unicode="D" glyph-name="D" horiz-adv-x="1366" d="M158 18H547Q641 18 726 45Q810 72 882 121Q953 169 1010 235Q1067 301 1107 379Q1147 457 1169 544Q1190 631 1190 721Q1190 811 1169 898Q1147 984 1107 1062Q1067 1140 1010 1206Q953 1272 882 1321Q810
1369 726 1396Q641 1423 547 1423H158V18ZM547 1442Q647 1442 743 1418Q839 1393 925 1348Q1010 1303 1082 1239Q1154 1174 1207 1094Q1259 1014 1288 920Q1317 825 1317 721Q1317 617 1288 523Q1259 429 1207 349Q1154 269 1082 205Q1010 140 925 95Q839 49 743
25Q647 0 547 0H49V1442H547Z" />
<glyph unicode="E" glyph-name="E" horiz-adv-x="569" d="M481 903V883H158V18H520V0H49V1442H446V1423H158V903H481Z" />
<glyph unicode="F" glyph-name="F" horiz-adv-x="532" d="M158 1432V909H483V891H158V0H49V1452H449V1432H158Z" />
<glyph unicode="G" glyph-name="G" horiz-adv-x="1544" d="M823 -39Q717 -39 618 -12Q519 16 433 67Q347 118 276 189Q205 259 155 345Q105 431 77 530Q49 628 49 735Q49 841 77 940Q105 1039 155 1125Q205 1211 276 1282Q347 1352 433 1403Q519 1454 618 1482Q716
1509 823 1509Q917 1509 1007 1487Q1096 1465 1176 1424Q1256 1383 1326 1323Q1396 1263 1452 1188L1368 1141Q1326 1216 1269 1280Q1212 1344 1143 1391Q1074 1438 994 1465Q913 1491 823 1491Q724 1491 638 1461Q551 1430 480 1377Q408 1323 352 1250Q296 1177
257 1093Q218 1009 198 918Q178 826 178 735Q178 644 198 554Q218 463 257 379Q296 295 352 223Q408 150 480 97Q551 43 638 13Q724 -18 823 -18Q907 -18 987 0Q1066 18 1138 53Q1210 87 1273 137Q1335 186 1386 248V891H1036V909H1495V2H1479L1389 219Q1283 97
1137 29L823 -39Z" />
<glyph unicode="H" glyph-name="H" horiz-adv-x="614" d="M565 1452V0H457V891H158V0H49V1452H158V909H457V1452H565Z" />
<glyph unicode="I" glyph-name="I" horiz-adv-x="207" d="M158 1452V0H49V1452H158Z" />
<glyph unicode="J" glyph-name="J" horiz-adv-x="1098" d="M604 457Q585 457 569 464Q552 471 540 484Q528 496 521 513Q514 529 514 547Q514 584 541 611Q567 637 604 637Q642 637 668 611Q694 585 694 543Q700 561 700 588Q700 629 677 662Q653 695 618 718Q583
741 542 754Q500 766 463 766Q384 765 324 733Q263 700 222 647Q181 594 160 525Q139 456 139 383Q139 299 166 226Q192 153 242 99Q291 45 361 14Q431 -18 518 -18Q632 -18 712 30Q792 78 843 156Q893 234 916 332Q938 429 938 528V1452H1049V545Q1049 422 1015
316Q980 209 913 130Q845 51 746 6Q647 -39 518 -39Q421 -39 336 -10Q250 19 187 75Q123 130 86 210Q49 290 49 391Q49 476 82 548Q115 620 171 673Q227 725 303 755Q378 784 463 784Q506 784 552 771Q598 757 636 732Q673 707 697 671Q721 634 721 588Q721 562
713 538Q705 514 690 496Q675 478 654 468L604 457Z" />
<glyph unicode="K" glyph-name="K" horiz-adv-x="780" d="M158 1452V0H49V1452H158ZM242 745L756 0H621L164 666L696 1452H721L242 745Z" />
<glyph unicode="L" glyph-name="L" horiz-adv-x="498" d="M49 0V1452H158V20H449V0H49Z" />
<glyph unicode="M" glyph-name="M" horiz-adv-x="831" d="M756 1493H782V0H674V1223L377 430H360L70 1206V0H49V1493H78L416 590L756 1493Z" />
<glyph unicode="N" glyph-name="N" horiz-adv-x="612" d="M543 1479H563V-43H537L70 1206V0H49V1493H78L543 250V1479Z" />
<glyph unicode="O" glyph-name="O" horiz-adv-x="1647" d="M823 1491Q724 1491 638 1461Q551 1430 480 1377Q408 1323 352 1250Q296 1177 257 1093Q218 1009 198 918Q178 826 178 735Q178 644 198 554Q218 463 257 379Q296 295 352 223Q408 150 480 97Q551 43
638 13Q724 -18 823 -18Q922 -18 1009 13Q1096 43 1168 97Q1240 150 1296 223Q1352 295 1391 379Q1429 463 1450 554Q1470 644 1470 735Q1470 826 1450 918Q1429 1009 1391 1093Q1352 1177 1296 1250Q1240 1323 1168 1377Q1096 1430 1009 1461L823 1491ZM823 1509Q930
1509 1029 1482Q1128 1454 1214 1404Q1300 1353 1371 1283Q1441 1212 1492 1126Q1542 1040 1570 941Q1597 842 1597 735Q1597 629 1570 530Q1542 431 1492 345Q1441 259 1371 188Q1300 117 1214 67Q1128 16 1029 -12Q930 -39 823 -39Q717 -39 618 -12Q519 16 433
67Q347 118 276 189Q205 259 155 345Q105 431 77 530Q49 628 49 735Q49 842 77 941Q105 1040 155 1126Q205 1212 276 1283Q347 1353 433 1404Q519 1454 618 1482L823 1509Z" />
<glyph unicode="P" glyph-name="P" horiz-adv-x="1270" d="M49 0V926Q49 1046 95 1153Q141 1259 221 1338Q300 1417 407 1463Q513 1509 635 1509Q755 1509 862 1463Q969 1417 1049 1338Q1128 1259 1175 1153Q1221 1046 1221 926Q1221 804 1175 698Q1128 591 1049
512Q969 432 862 386Q755 340 635 340Q555 340 482 359Q409 378 348 415Q286 452 239 507Q191 561 162 631V0H49ZM635 358Q709 358 773 382Q836 405 889 446Q941 486 982 541Q1023 596 1051 659Q1079 722 1094 791Q1108 859 1108 926Q1108 992 1094 1060Q1079 1128
1051 1191Q1023 1253 982 1308Q941 1363 889 1404Q836 1444 773 1468Q709 1491 635 1491Q561 1491 498 1468Q434 1444 382 1404Q329 1363 288 1308Q247 1253 219 1191Q191 1128 177 1060Q162 992 162 926Q162 859 177 791Q191 722 219 659Q247 596 288 541Q329
486 382 446Q434 405 498 382L635 358Z" />
<glyph unicode="Q" glyph-name="Q" horiz-adv-x="1647" d="M1004 10Q962 79 912 134Q862 188 803 226Q743 263 673 283Q602 303 518 303Q414 303 324 262Q365 200 418 149Q470 97 533 60Q596 23 669 3Q742 -18 823 -18Q873 -18 918 -11L1004 10ZM1196 57Q1177
46 1159 37Q1140 28 1120 20Q1138 -8 1159 -44Q1179 -80 1205 -112Q1230 -144 1261 -166Q1292 -188 1331 -188Q1363 -188 1392 -176Q1420 -164 1441 -143Q1462 -122 1475 -94Q1487 -65 1487 -33Q1487 -4 1476 22Q1464 48 1445 68Q1425 87 1399 98Q1372 109 1343
109Q1322 109 1303 105Q1283 100 1266 92Q1284 91 1300 84Q1315 77 1327 65Q1338 53 1345 38Q1352 22 1352 4Q1352 -31 1328 -57Q1303 -82 1268 -82Q1231 -82 1207 -57Q1182 -31 1182 6Q1182 20 1186 33L1196 57ZM305 291Q420 350 553 350Q731 350 867 274Q1002
197 1100 51Q1187 100 1256 176Q1325 251 1373 342Q1420 432 1445 533Q1470 634 1470 735Q1470 826 1450 918Q1429 1009 1391 1093Q1352 1177 1296 1250Q1240 1323 1168 1377Q1096 1430 1009 1461Q922 1491 823 1491Q724 1491 638 1461Q551 1430 480 1377Q408 1323
352 1250Q296 1177 257 1093Q218 1009 198 918Q178 826 178 735Q178 620 211 505L305 291ZM823 1509Q930 1509 1029 1482Q1128 1454 1214 1404Q1300 1353 1371 1283Q1441 1212 1492 1126Q1542 1040 1570 941Q1597 842 1597 735Q1597 642 1576 555Q1555 467 1516
389Q1477 311 1421 244Q1365 176 1296 123Q1318 129 1343 129Q1377 129 1407 117Q1436 104 1458 82Q1480 60 1493 31Q1505 1 1505 -33Q1505 -78 1488 -118Q1471 -157 1442 -187Q1412 -216 1373 -233Q1333 -250 1288 -250Q1239 -250 1199 -228Q1159 -206 1127 -172Q1094
-138 1068 -96Q1041 -54 1018 -14Q927 -39 823 -39Q737 -39 657 -21Q576 -3 503 31Q429 64 365 112Q300 160 246 219Q189 181 145 127Q100 73 72 8L53 16Q79 84 124 141Q169 198 227 242Q144 344 97 470Q49 595 49 735Q49 842 77 941Q105 1040 155 1126Q205 1212
276 1283Q347 1353 433 1404Q519 1454 618 1482L823 1509Z" />
<glyph unicode="R" glyph-name="R" horiz-adv-x="1270" d="M1108 926Q1108 1043 1071 1146Q1034 1248 969 1325Q906 1400 820 1446Q734 1491 635 1491Q535 1491 450 1446Q364 1400 301 1325Q236 1248 199 1146Q162 1043 162 926V0H49V926Q49 1006 70 1081Q91 1155
130 1220Q168 1285 222 1338Q275 1391 340 1429Q405 1467 480 1488Q554 1509 635 1509Q755 1509 862 1463Q969 1417 1049 1338Q1128 1259 1175 1153Q1221 1046 1221 926Q1221 804 1175 698Q1128 591 1049 512Q969 432 862 386Q755 340 635 340Q592 340 551 346Q509
351 469 362L1057 2H1020L342 418L352 434Q417 397 489 378Q561 358 635 358Q734 358 820 404Q906 449 969 524Q1034 602 1071 705L1108 926Z" />
<glyph unicode="S" glyph-name="S" horiz-adv-x="1169" d="M262 899Q169 825 120 720Q70 614 70 496Q70 394 108 303Q146 211 211 142Q276 72 364 31Q452 -10 553 -10Q649 -10 733 27Q817 63 880 127Q942 190 978 275Q1014 359 1014 455Q1014 548 989 623Q963
697 909 754Q800 869 567 924Q512 938 462 963Q412 987 375 1024Q337 1060 315 1109Q293 1157 293 1219Q293 1279 316 1332Q339 1384 379 1424Q418 1463 471 1486Q524 1509 584 1509Q644 1509 697 1487Q749 1464 789 1425Q828 1385 851 1332Q874 1279 874 1219Q874
1199 872 1179Q869 1159 864 1141L844 1145Q850 1163 852 1182Q854 1200 854 1219Q854 1273 834 1321Q814 1369 780 1406Q745 1442 699 1464Q652 1485 598 1485Q551 1485 511 1467Q470 1449 440 1418Q410 1387 393 1347Q375 1306 375 1260Q375 1208 393 1172Q411
1135 441 1110Q471 1085 511 1070Q550 1054 594 1044Q718 1015 815 969Q911 922 979 856Q1048 788 1084 700Q1120 611 1120 496Q1120 385 1079 288Q1037 190 965 118Q892 45 794 3Q696 -39 584 -39Q473 -39 376 3Q279 45 206 118Q133 191 91 288Q49 385 49 496Q49
619 102 728Q154 836 250 913L262 899Z" />
<glyph unicode="T" glyph-name="T" horiz-adv-x="612" d="M360 0H252V1432H49V1452H563V1432H360V0Z" />
<glyph unicode="U" glyph-name="U" horiz-adv-x="621" d="M571 217Q571 163 551 117Q530 70 494 36Q458 1 411 -19Q363 -39 309 -39Q255 -39 208 -19Q161 2 126 38Q90 73 70 120Q49 167 49 221V1452H158V217Q158 176 174 141Q189 105 216 78Q242 51 278 36Q313
20 354 20Q395 20 431 36Q467 51 494 78Q520 105 536 141Q551 176 551 217V1452H571V217Z" />
<glyph unicode="V" glyph-name="V" horiz-adv-x="582" d="M539 1452H557L299 -14H274L25 1452H137L332 281L539 1452Z" />
<glyph unicode="W" glyph-name="W" horiz-adv-x="809" d="M764 1452H784L557 -14H532L403 815L276 -14H252L25 1452H137L307 319L395 879L305 1452H414L449 1227L483 1452H504L459 1163L590 317L764 1452Z" />
<glyph unicode="X" glyph-name="X" horiz-adv-x="700" d="M418 754L659 0H639L408 725L141 0H25L352 893L174 1452H195L362 924L559 1452H676L418 754Z" />
<glyph unicode="Y" glyph-name="Y" horiz-adv-x="600" d="M362 0H254V651L25 1452H141L356 698L555 1452H575L362 645V0Z" />
<glyph unicode="Z" glyph-name="Z" horiz-adv-x="553" d="M494 1452L164 20H504V0H49L377 1432H96V1452H494Z" />
<glyph unicode="[" glyph-name="bracketleft" horiz-adv-x="350" d="M158 -252H301V-270H49V1450H301V1430H158V-252Z" />
<glyph unicode="\" glyph-name="backslash" horiz-adv-x="709" d="M49 1450H72L659 -213H530L49 1450Z" />
<glyph unicode="]" glyph-name="bracketright" horiz-adv-x="350" d="M193 1430H49V1450H301V-270H49V-252H193V1430Z" />
<glyph unicode="^" glyph-name="asciicircum" horiz-adv-x="762" d="M369 1450H393L713 723H692L381 1430L70 723H49L369 1450Z" />
<glyph unicode="_" glyph-name="underscore" horiz-adv-x="1024" d="M0 -18H1024V-39H0V-18Z" />
<glyph unicode="`" glyph-name="grave" horiz-adv-x="406" d="M49 1286H166L356 975H324L49 1286Z" />
<glyph unicode="a" glyph-name="a" horiz-adv-x="1030" d="M514 -20Q573 -20 624 -1Q674 18 716 51Q757 84 789 128Q821 172 843 222Q865 272 876 326Q887 380 887 432Q887 511 862 592Q837 673 789 739Q741 804 672 846Q602 887 514 887Q427 887 358 846Q289
804 241 739Q193 673 168 592Q143 511 143 432Q143 380 155 326Q166 272 188 222Q209 172 241 128Q273 84 314 51Q355 18 406 -1L514 -20ZM514 -41Q416 -41 330 -4Q244 34 180 98Q116 162 79 248Q41 334 41 432Q41 530 79 617Q116 703 180 768Q244 832 330 870Q416
907 514 907Q612 907 699 869Q785 831 850 762Q914 693 952 597Q989 500 989 383V0H887V182Q868 132 827 91Q786 50 734 21Q682 -9 625 -25L514 -41Z" />
<glyph unicode="b" glyph-name="b" horiz-adv-x="1047" d="M522 887Q435 887 366 846Q297 804 250 739Q202 673 177 592Q152 511 152 432Q152 380 163 326Q174 272 196 222Q218 172 250 128Q281 84 323 51Q364 18 414 -1Q464 -20 522 -20Q581 -20 632 -1Q682 18
724 51Q765 84 797 128Q829 172 851 222Q873 272 884 326Q895 380 895 432Q895 511 870 592Q845 673 797 739Q749 804 680 846L522 887ZM522 907Q620 907 707 870Q793 832 858 768Q922 703 960 617Q997 530 997 432Q997 334 960 248Q922 162 858 98Q793 34 707
-4Q620 -41 522 -41Q424 -41 338 -3Q252 35 188 104Q124 172 87 268Q49 364 49 481V1391H152V682Q171 733 212 775Q252 816 304 846Q356 875 413 891L522 907Z" />
<glyph unicode="c" glyph-name="c" horiz-adv-x="952" d="M903 152Q835 61 735 10Q635 -41 522 -41Q424 -41 338 -4Q252 34 188 98Q124 162 87 248Q49 334 49 432Q49 530 87 617Q124 703 188 768Q252 832 338 870Q424 907 522 907Q635 907 735 857Q835 806 903
715L864 682Q837 724 800 762Q762 799 718 827Q674 855 624 871Q574 887 522 887Q435 887 366 846Q297 804 250 739Q202 673 177 592Q152 511 152 432Q152 380 163 326Q174 272 196 222Q218 172 250 128Q281 84 323 51Q364 18 414 -1Q464 -20 522 -20Q632 -20 728
28Q824 75 887 162L903 152Z" />
<glyph unicode="d" glyph-name="d" horiz-adv-x="1047" d="M522 887Q435 887 366 846Q297 804 250 739Q202 673 177 592Q152 511 152 432Q152 380 163 326Q174 272 196 222Q218 172 250 128Q281 84 323 51Q364 18 414 -1Q464 -20 522 -20Q581 -20 632 -1Q682 18
724 51Q765 84 797 128Q829 172 851 222Q873 272 884 326Q895 380 895 432Q895 511 870 592Q845 673 797 739Q749 804 680 846L522 887ZM522 907Q575 907 633 891Q691 875 743 846Q794 816 835 775Q876 733 895 682V1391H997V481Q997 364 960 268Q922 172 858 104Q793
35 707 -3Q620 -41 522 -41Q424 -41 338 -4Q252 34 188 98Q124 162 87 248Q49 334 49 432Q49 530 87 617Q124 703 188 768Q252 832 338 870L522 907Z" />
<glyph unicode="e" glyph-name="e" horiz-adv-x="1038" d="M874 586Q856 645 824 700Q791 754 746 796Q701 837 645 862Q588 887 522 887Q435 887 366 846Q297 804 250 739Q202 673 177 592Q152 511 152 432Q152 403 155 375Q157 347 162 319L874 586ZM989 350Q974
266 932 194Q889 122 827 70Q765 18 687 -12Q608 -41 522 -41Q424 -41 338 -4Q252 34 188 98Q124 162 87 248Q49 334 49 432Q49 530 87 617Q124 703 188 768Q252 832 338 870Q424 907 522 907Q597 907 666 885Q734 862 792 822Q850 781 895 724Q939 667 967 598L166
301Q182 239 214 181Q246 123 292 79Q338 34 396 7Q454 -20 522 -20Q604 -20 679 8Q754 36 814 86Q874 135 915 204Q956 273 971 354L989 350Z" />
<glyph unicode="f" glyph-name="f" horiz-adv-x="432" d="M289 1372Q260 1372 236 1361Q211 1350 192 1331Q173 1312 163 1287Q152 1261 152 1233V879H383V858H152V0H49V1219Q49 1255 63 1287Q76 1318 100 1341Q123 1364 155 1378Q186 1391 221 1391H383V1372H289Z" />
<glyph unicode="g" glyph-name="g" horiz-adv-x="1237" d="M614 793Q617 782 619 770Q621 758 621 745Q621 707 606 673Q591 638 566 613Q540 587 506 572Q471 557 432 557Q401 557 373 567Q344 577 319 594Q311 596 304 596H289Q270 596 247 591Q224 586 204
575Q183 564 170 547Q156 530 156 506Q156 488 166 476Q176 463 192 455Q207 447 225 444Q243 440 258 440Q308 440 352 457Q396 473 442 494Q487 514 539 531Q591 547 657 547Q765 547 862 506Q958 465 1031 394Q1103 323 1146 227Q1188 131 1188 20Q1188 -90
1146 -187Q1104 -283 1032 -356Q959 -428 862 -470Q765 -512 655 -512Q545 -512 448 -470Q351 -428 279 -356Q207 -283 165 -187Q123 -90 123 20Q123 85 139 148Q155 211 184 268L203 258Q174 204 160 144Q145 83 145 20Q145 -78 184 -168Q223 -258 290 -326Q356
-394 444 -435Q531 -475 629 -475Q739 -475 822 -438Q904 -400 960 -334Q1015 -267 1043 -177Q1071 -86 1071 20Q1071 135 1038 229Q1005 322 948 388Q890 454 812 490Q734 526 645 526Q588 526 537 510Q486 493 436 467Q404 450 375 433Q345 415 315 401Q285 387
254 378Q223 369 190 369Q165 369 140 376Q115 383 95 397Q74 411 62 432Q49 453 49 481Q49 520 74 548Q99 576 135 594Q171 611 212 620Q253 628 285 629Q244 679 244 745Q244 784 259 819Q273 854 299 880Q324 906 359 921Q393 936 432 936Q482 936 522 911Q561
886 592 844Q607 821 632 806Q657 791 686 791Q708 791 728 800Q747 809 762 824Q776 839 785 859Q793 879 793 901Q793 938 771 968Q748 998 711 1006Q722 996 729 983Q735 970 735 954Q735 925 713 906Q691 887 664 887Q638 887 618 906Q598 924 598 952Q598
970 606 984Q613 998 625 1008Q637 1017 653 1023Q669 1028 686 1028Q712 1028 735 1018Q758 1008 776 991Q793 973 803 950Q813 927 813 901Q813 875 803 851Q793 827 776 809Q758 791 735 781Q712 770 686 770L614 793ZM432 915Q402 915 381 898Q359 880 345
855Q330 829 324 800Q317 770 317 745Q317 721 324 692Q330 663 345 638Q359 612 381 595Q402 578 432 578Q462 578 484 595Q505 612 520 638Q534 663 541 692Q547 721 547 745Q547 770 541 800Q534 829 520 855Q505 880 484 898L432 915Z" />
<glyph unicode="h" glyph-name="h" horiz-adv-x="522" d="M152 815Q173 855 214 881Q254 907 303 907Q338 907 369 894Q400 880 423 857Q446 833 460 802Q473 770 473 735V0H373V741Q373 763 365 784Q356 804 341 819Q326 834 306 843Q285 852 262 852Q239 852
219 842Q199 832 184 816Q169 800 161 779Q152 757 152 735V0H49V1391H152V815Z" />
<glyph unicode="i" glyph-name="i" horiz-adv-x="283" d="M193 879V0H90V879H193ZM141 1245Q160 1245 177 1238Q194 1231 207 1219Q219 1206 226 1189Q233 1172 233 1153Q233 1134 226 1117Q219 1100 207 1088Q194 1075 177 1068Q160 1061 141 1061Q122 1061 105
1068Q88 1075 76 1088Q63 1100 56 1117Q49 1134 49 1153Q49 1172 56 1189Q63 1206 76 1219Q88 1231 105 1238L141 1245Z" />
<glyph unicode="j" glyph-name="j" horiz-adv-x="295" d="M-25 -492Q3 -492 27 -481Q50 -470 67 -452Q84 -433 93 -408Q102 -383 102 -354V879H205V-317Q205 -373 186 -411Q166 -448 134 -471Q102 -493 61 -503Q19 -512 -25 -512V-492ZM154 1245Q173 1245 190
1238Q207 1231 220 1219Q232 1206 239 1189Q246 1172 246 1153Q246 1134 239 1117Q232 1100 220 1088Q207 1075 190 1068Q173 1061 154 1061Q134 1061 118 1068Q101 1075 88 1088Q75 1100 68 1117Q61 1134 61 1153Q61 1172 68 1189Q75 1206 88 1219Q101 1231 118
1238L154 1245Z" />
<glyph unicode="k" glyph-name="k" horiz-adv-x="676" d="M152 1391V0H49V1391H152ZM651 0H524L166 481L426 879H492L240 549L651 0Z" />
<glyph unicode="l" glyph-name="l" horiz-adv-x="201" d="M152 1391V0H49V1391H152Z" />
<glyph unicode="m" glyph-name="m" horiz-adv-x="764" d="M381 795Q400 844 444 876Q487 907 543 907Q578 907 610 894Q641 880 665 857Q688 833 702 802Q715 770 715 735V0H612V741Q612 763 604 784Q595 804 580 819Q565 834 545 843Q525 852 502 852Q477 852
457 843Q436 833 422 818Q407 802 399 781Q391 759 391 735V0H291V741Q291 763 283 784Q274 804 259 819Q244 834 224 843Q203 852 180 852Q157 852 137 842Q117 832 102 816Q87 800 79 779Q70 757 70 735V0H49V735Q49 770 63 802Q76 833 100 857Q123 880 155 894Q186
907 221 907Q249 907 274 899Q299 890 320 875Q341 860 357 840L381 795Z" />
<glyph unicode="n" glyph-name="n" horiz-adv-x="440" d="M49 735Q49 770 63 802Q76 833 100 857Q123 880 155 894Q186 907 221 907Q256 907 287 894Q318 880 341 857Q364 833 378 802Q391 770 391 735V0H291V741Q291 763 283 784Q274 804 259 819Q244 834 224
843Q203 852 180 852Q157 852 137 842Q117 832 102 816Q87 800 79 779Q70 757 70 735V0H49V735Z" />
<glyph unicode="o" glyph-name="o" horiz-adv-x="1047" d="M522 887Q435 887 366 846Q297 804 250 739Q202 673 177 592Q152 511 152 432Q152 380 163 326Q174 272 196 222Q218 172 250 128Q281 84 323 51Q364 18 414 -1Q464 -20 522 -20Q581 -20 632 -1Q682 18
724 51Q765 84 797 128Q829 172 851 222Q873 272 884 326Q895 380 895 432Q895 511 870 592Q845 673 797 739Q749 804 680 846L522 887ZM522 907Q620 907 707 870Q793 832 858 768Q922 703 960 617Q997 530 997 432Q997 334 960 248Q922 162 858 98Q793 34 707
-4Q620 -41 522 -41Q424 -41 338 -4Q252 34 188 98Q124 162 87 248Q49 334 49 432Q49 530 87 617Q124 703 188 768Q252 832 338 870L522 907Z" />
<glyph unicode="p" glyph-name="p" horiz-adv-x="1047" d="M522 -20Q581 -20 632 -1Q682 18 724 51Q765 84 797 128Q829 172 851 222Q873 272 884 326Q895 380 895 432Q895 511 870 592Q845 673 797 739Q749 804 680 846Q610 887 522 887Q435 887 366 846Q297
804 250 739Q202 673 177 592Q152 511 152 432Q152 380 163 326Q174 272 196 222Q218 172 250 128Q281 84 323 51Q364 18 414 -1L522 -20ZM522 -41Q470 -41 413 -25Q356 -9 304 21Q252 50 212 91Q171 132 152 182V-512H49V383Q49 500 87 597Q124 693 188 762Q252
831 338 869Q424 907 522 907Q620 907 707 870Q793 832 858 768Q922 703 960 617Q997 530 997 432Q997 334 960 248Q922 162 858 98Q793 34 707 -4L522 -41Z" />
<glyph unicode="q" glyph-name="q" horiz-adv-x="1047" d="M522 -20Q581 -20 632 -1Q682 18 724 51Q765 84 797 128Q829 172 851 222Q873 272 884 326Q895 380 895 432Q895 511 870 592Q845 673 797 739Q749 804 680 846Q610 887 522 887Q435 887 366 846Q297
804 250 739Q202 673 177 592Q152 511 152 432Q152 380 163 326Q174 272 196 222Q218 172 250 128Q281 84 323 51Q364 18 414 -1L522 -20ZM522 -41Q424 -41 338 -4Q252 34 188 98Q124 162 87 248Q49 334 49 432Q49 530 87 617Q124 703 188 768Q252 832 338 870Q424
907 522 907Q620 907 707 869Q793 831 858 762Q922 693 960 597Q997 500 997 383V-512H895V182Q876 132 835 91Q794 50 743 21Q691 -9 633 -25L522 -41Z" />
<glyph unicode="r" glyph-name="r" horiz-adv-x="387" d="M225 862Q204 850 190 832Q176 813 168 791Q159 769 156 745Q152 720 152 698V0H49V879H152V801Q167 838 197 865Q226 891 268 891Q294 891 316 875Q338 859 338 831Q338 807 321 790Q303 772 279 772Q254
772 237 790Q219 807 219 831L225 862Z" />
<glyph unicode="s" glyph-name="s" horiz-adv-x="819" d="M414 907Q391 907 371 900Q350 893 334 880Q318 866 309 848Q299 829 299 805Q299 781 309 763Q319 744 336 730Q352 716 373 707Q393 698 414 692Q485 674 550 645Q614 615 663 571Q712 526 741 465Q770
403 770 322Q770 244 743 178Q715 112 667 63Q618 14 552 -14Q485 -41 408 -41Q333 -41 268 -13Q203 16 154 66Q105 115 77 181Q49 247 49 322Q49 415 93 497Q137 578 217 629L227 612Q152 564 111 487Q70 410 70 322Q70 260 95 203Q119 146 161 102Q202 57 258
31Q314 4 377 4Q439 4 493 28Q546 52 585 93Q624 134 646 189Q668 243 668 305Q668 371 643 419Q618 467 577 502Q535 536 482 558Q429 580 373 594Q341 602 311 619Q280 635 257 659Q233 683 219 713Q205 743 205 778Q205 813 219 845Q233 876 257 900Q281 923
313 937Q344 950 379 950Q415 950 447 936Q478 922 502 898Q526 874 540 842Q553 810 553 774Q553 762 551 750Q548 737 545 725L526 729Q529 740 531 752Q532 763 532 774Q532 799 524 823Q516 847 501 866Q485 885 463 896L414 907Z" />
<glyph unicode="t" glyph-name="t" horiz-adv-x="414" d="M119 879Q147 879 168 900Q189 921 203 956Q217 990 224 1035Q231 1079 231 1126V1389H250V879H365V858H250V0H150V858H49V879H119Z" />
<glyph unicode="u" glyph-name="u" horiz-adv-x="440" d="M391 145Q391 110 378 79Q364 47 341 24Q318 0 287 -14Q256 -27 221 -27Q186 -27 155 -14Q123 0 100 24Q76 47 63 79Q49 110 49 145V879H152V139Q152 116 161 96Q169 76 184 61Q199 46 219 38Q238 29 260
29Q283 29 304 39Q324 49 340 65Q355 81 364 102Q373 123 373 145V879H391V145Z" />
<glyph unicode="v" glyph-name="v" horiz-adv-x="541" d="M496 879H516L281 -35H236L25 879H129L305 133L496 879Z" />
<glyph unicode="w" glyph-name="w" horiz-adv-x="715" d="M346 481L264 879H367L399 727L430 879H451L410 680L518 160L670 879H690L498 -35H455L356 434L258 -35H217L25 879H129L279 160L346 481Z" />
<glyph unicode="x" glyph-name="x" horiz-adv-x="586" d="M354 451L553 0H532L344 428L137 0H25L289 549L143 879H166L301 573L449 879H561L354 451Z" />
<glyph unicode="y" glyph-name="y" horiz-adv-x="547" d="M31 879H133L309 133L502 879H522L268 -106Q260 -139 242 -167Q223 -195 198 -216Q172 -236 140 -247Q108 -258 74 -258Q33 -258 -3 -243Q-38 -227 -66 -201L-53 -186Q-28 -209 6 -224Q39 -238 74 -238Q105
-238 134 -228Q162 -218 186 -200Q209 -182 226 -157Q242 -132 250 -102L252 -88L31 879Z" />
<glyph unicode="z" glyph-name="z" horiz-adv-x="463" d="M414 20V0H49L301 858H70V879H412L160 20H414Z" />
<glyph unicode="{" glyph-name="braceleft" horiz-adv-x="338" d="M147 545Q185 568 198 604Q211 640 211 680Q211 715 193 759Q174 803 150 856Q133 889 117 925Q101 960 88 997Q75 1034 67 1072Q59 1109 59 1147Q59 1184 71 1222Q83 1259 105 1293Q127 1326
157 1352Q187 1378 223 1391L231 1372Q178 1346 160 1303Q141 1259 141 1204Q141 1172 159 1129Q176 1086 199 1036Q214 1002 230 966Q246 930 259 893Q272 855 281 816Q289 777 289 737Q289 671 255 620Q220 569 170 530Q220 493 255 442Q289 391 289 326Q289
286 281 247Q272 207 259 170Q246 132 230 96Q214 60 199 27Q176 -24 159 -67Q141 -109 141 -141Q141 -198 160 -242Q178 -285 231 -311L223 -330Q187 -317 157 -291Q127 -265 105 -232Q83 -198 71 -160Q59 -122 59 -84Q59 -47 67 -10Q75 28 88 65Q101 102 117
138Q133 173 150 207Q174 258 193 303Q211 347 211 381Q211 423 198 458Q185 493 147 516Q136 507 122 502Q108 496 92 496Q77 496 63 505Q49 513 49 530Q49 547 63 557Q77 567 92 567L147 545Z" />
<glyph unicode="|" glyph-name="bar" horiz-adv-x="137" d="M49 1516H88V-532H49V1516Z" />
<glyph unicode="}" glyph-name="braceright" horiz-adv-x="338" d="M190 545Q214 567 246 567Q261 567 275 557Q289 547 289 530Q289 513 275 505Q261 496 246 496Q230 496 216 502Q201 507 190 516Q153 493 140 458Q127 423 127 381Q127 347 146 303Q164 258
188 207Q204 173 221 138Q237 102 250 65Q263 28 271 -10Q279 -47 279 -84Q279 -122 267 -160Q255 -198 233 -232Q211 -265 181 -291Q151 -317 115 -330L106 -311Q160 -285 179 -242Q197 -198 197 -141Q197 -109 180 -67Q162 -24 139 27Q124 60 108 96Q92 132 79
170Q66 207 58 247Q49 286 49 326Q49 391 84 442Q118 493 168 530Q118 569 84 620Q49 671 49 737Q49 777 58 816Q66 855 79 893Q92 930 108 966Q124 1002 139 1036Q162 1086 180 1129Q197 1172 197 1204Q197 1260 179 1303Q160 1346 106 1372L115 1391Q151 1378
181 1352Q211 1326 233 1293Q255 1259 267 1222Q279 1184 279 1147Q279 1109 271 1072Q263 1034 250 997Q237 960 221 925Q204 889 188 856Q164 803 146 759Q127 715 127 680Q127 640 140 604L190 545Z" />
<glyph unicode="~" glyph-name="asciitilde" horiz-adv-x="1188" d="M1139 735Q1074 670 1010 643Q945 616 877 616Q811 616 740 638Q669 660 597 686Q525 712 454 734Q383 756 317 756Q251 756 188 731Q125 705 63 643L49 655Q114 721 181 748Q248 774 319 774Q385
774 456 753Q527 731 598 706Q669 680 739 659Q808 637 872 637Q937 637 999 662Q1061 687 1126 750L1139 735Z" />
</font>
</defs>
</svg>
